<?xml version="1.0" encoding="UTF-8"?>
<svg id="Laag_1" data-name="Laag 1" xmlns="http://www.w3.org/2000/svg" viewBox="0 0 360 360">
  <defs>
    <style>
      .cls-1 {
        stroke: #000;
        stroke-miterlimit: 10;
        stroke-width: 3.83px;
      }
    </style>
  </defs>
  <path class="cls-1" d="M303.75,187.38c-.39,21.63-23.09,71.46-44.05,56.75-7.01-4.92-9.52-14.14-6.4-22.11,46.36-118.47-110.59-153.63-165.22-81.96-3.2,4.19-7.98,6.92-13.23,7.39-29.86,2.67-11.81-28.09,9.75-54.84.31-.38.63-.75.96-1.11,77.63-83.29,223.16-15.54,218.2,95.89Z"/>
  <path class="cls-1" d="M309.51,261.49c.78,11.39-3.07,22.02-9.91,29.99-6.85,7.97-16.7,13.29-27.94,14.06-5.31.36-10.46-.32-15.24-1.88-6.99-2.28-8.45-11.54-2.54-15.91,5.59-4.13,10.81-8.72,15.62-13.73,1.58-1.64,3.12-3.33,4.61-5.07,1.49-1.73,2.94-3.51,4.33-5.33,2.91-3.79,5.6-7.75,8.07-11.88,1.06-1.77,2.07-3.57,3.05-5.39,3.49-6.55,13.05-6.36,16.17.37,2.1,4.52,3.42,9.49,3.78,14.77Z"/>
  <path class="cls-1" d="M248.52,246.01c-17.19-10.96-6.79-24.59-5.31-32.5,21.64-115.53-112.72-111.33-150.58-59.62-5.74,7.84-24.59,5.08-25.04,5.03-8.37-.78-11.67,1.66-14,10.54-27.79,106.04,132.76,184.42,198.64,101.39,6.27-7.9,4.79-19.42-3.71-24.84ZM95.86,233.32c-29.22.43-29.22-45.47,0-45.04,29.21-.43,29.21,45.47,0,45.04ZM189.87,233.32c-29.21.43-29.21-45.47,0-45.04,29.22-.43,29.22,45.47,0,45.04Z"/>
</svg>